<?xml version="1.0" encoding="UTF-8"?>
<svg xmlns="http://www.w3.org/2000/svg" id="Outline" viewBox="0 0 512 512" width="512" height="512"><path d="M20.778,431.323a8,8,0,0,0,8.628-1.426L32,427.52V472a24.027,24.027,0,0,0,24,24H456a24.027,24.027,0,0,0,24-24V286.624A24,24,0,0,0,472,240V104a40.068,40.068,0,0,0-32-39.195V40a8,8,0,0,0-8-8H384a8,8,0,0,0-8,8V64.805A40.068,40.068,0,0,0,344,104v28.167a88.519,88.519,0,0,0-8.189-6.011,78.744,78.744,0,0,0-8.951-26.272,8,8,0,0,0-13.72,8.232,54.62,54.62,0,0,1,3.91,8.817A87.621,87.621,0,0,0,288,112c-2.673,0-5.343.139-8,.379V40a24,24,0,0,0-48,0v92.123a87.14,87.14,0,0,0-29.544,47.044L129.78,45.291A55.859,55.859,0,0,0,59.025,20.315l-8.549,3.563a56,56,0,0,0-28.549,76.736L91.62,240,24,240a8,8,0,0,0-8,8V424A8,8,0,0,0,20.778,431.323ZM464,448H432V408h32Zm0-56H432V344h32Zm0-64H432V288h32ZM392,48h32V64H392Zm-8,32h48a24.028,24.028,0,0,1,24,24v3.056l-7.569-3.785a40.037,40.037,0,0,0-32.745-1.362l-14.772,5.909a23.9,23.9,0,0,1-17.828,0l-22.515-9.006A24.037,24.037,0,0,1,384,80Zm-24,35.816,17.145,6.858a39.831,39.831,0,0,0,29.711,0l14.772-5.909a24.018,24.018,0,0,1,19.646.817L456,124.944V144H360ZM366.372,160H456v80H366.4a88.035,88.035,0,0,0-.032-80ZM280,128.454a72.851,72.851,0,0,1,8-.454,71.52,71.52,0,0,1,32.565,7.818,45.822,45.822,0,0,1-7.2,25.839A43.725,43.725,0,0,1,312,151.983,8,8,0,0,0,296,152c0,1.977.29,19.6,10.343,29.657S334.023,192,336,192a8,8,0,0,0,.021-16,42.9,42.9,0,0,1-11.762-1.985,60.966,60.966,0,0,0,11.671-27.684A71.914,71.914,0,0,1,347.863,240H280ZM280,256H472a8,8,0,0,1,0,16H280ZM384,392V344h32v48Zm32,16v40H384V408Zm-32-80V288h32v40Zm-48,64V344h32v48Zm32,16v40H336V408Zm-32-80V288h32v40Zm-48,64V344h32v48Zm32,16v40H288V408Zm-32-80V288h32v40ZM248,40a8,8,0,0,1,16,0V272H248Zm-8,248h32v40H240Zm0,56h32v48H240Zm0,64h32v40H240Zm224,56v8a8.009,8.009,0,0,1-8,8H56a8.009,8.009,0,0,1-8-8v-8ZM80,408v40H48V412.853L53.294,408Zm-9.251-16L80,383.52V392ZM128,408v40H96V408ZM96,392V368.853L123.112,344H128v48Zm80-48v48H144V344Zm-32-16v-3.147l32-29.333V328Zm32,80v40H144V408Zm48-120v40H192V288Zm-22.342-16,17.448-16H232V272ZM224,344v48H192V344Zm0,64v40H192V408Zm8-253.3v78.9l-15.854-29.2c-.087-1.462-.146-2.929-.146-4.386A71.374,71.374,0,0,1,232,154.7ZM45.826,112.637,67.4,99.151a8,8,0,0,1,11.395,3.2l1.5,3.011A8.037,8.037,0,0,1,77.264,115.8L54.3,129.584Zm15.65,31.3L85.5,129.524a24.108,24.108,0,0,0,9.118-31.311L93.109,95.2a24,24,0,0,0-34.186-9.618L38.638,98.261l-2.4-4.8A40,40,0,0,1,56.63,38.647l8.55-3.562a39.9,39.9,0,0,1,50.538,17.839L217.276,240.005l-107.767,0L96.552,214.09l20.942-12.566a24.108,24.108,0,0,0,9.119-31.313l-1.5-3.01a24,24,0,0,0-34.184-9.619L73.685,168.355Zm27.9,55.8-8.5-17.006L99.4,171.15a8,8,0,0,1,11.4,3.206l1.5,3.011a8.036,8.036,0,0,1-3.04,10.437ZM32,256l163.429,0L32,405.814Z"/></svg>
